<svg width="618" height="618" viewBox="0 0 618 618" fill="none" xmlns="http://www.w3.org/2000/svg">
<g filter="url(#filter0_d_549_7)">
<rect width="512" height="512" transform="translate(49 49)" fill="white"/>
<path d="M255.976 383.245C248.979 383.245 242.953 380.952 237.9 376.365C232.847 371.778 230.32 366.063 230.32 359.222V227.677C230.32 221.923 232.03 216.831 235.451 212.4C238.872 207.968 243.381 205.131 248.979 203.887L337.608 185.461V330.067L253.643 348.026C251 348.648 248.784 350.009 246.996 352.108C245.208 354.207 244.314 356.578 244.314 359.222C244.314 362.176 245.48 364.586 247.813 366.452C250.145 368.318 252.866 369.251 255.976 369.251H365.597V215.315H379.591V383.245H255.976ZM258.308 333.099L272.302 330.067V213.216L258.308 216.248V333.099Z" fill="#4C8D41"/>
<path d="M232.548 425.91L230.087 423.582C229.98 423.6 229.864 423.609 229.739 423.609C229.623 423.609 229.511 423.609 229.404 423.609H223.023C221.694 423.609 220.486 423.359 219.398 422.86C218.31 422.36 217.378 421.678 216.602 420.813C215.835 419.948 215.242 418.931 214.823 417.763C214.404 416.594 214.194 415.346 214.194 414.017C214.194 412.697 214.404 411.457 214.823 410.298C215.242 409.13 215.835 408.113 216.602 407.248C217.378 406.374 218.31 405.687 219.398 405.188C220.486 404.679 221.694 404.425 223.023 404.425H229.404C230.724 404.425 231.924 404.679 233.003 405.188C234.082 405.687 235.005 406.374 235.772 407.248C236.548 408.113 237.146 409.13 237.565 410.298C237.984 411.457 238.194 412.697 238.194 414.017C238.194 415.007 238.073 415.957 237.832 416.866C237.601 417.767 237.262 418.601 236.816 419.368C236.37 420.126 235.826 420.804 235.184 421.402C234.55 421.99 233.837 422.472 233.043 422.846L236.254 425.91H232.548ZM235.451 414.017C235.451 413.072 235.313 412.184 235.036 411.355C234.76 410.525 234.359 409.803 233.832 409.188C233.315 408.563 232.682 408.073 231.933 407.716C231.193 407.35 230.35 407.168 229.404 407.168H223.023C222.078 407.168 221.226 407.35 220.468 407.716C219.719 408.073 219.081 408.563 218.555 409.188C218.038 409.803 217.636 410.525 217.351 411.355C217.075 412.184 216.936 413.072 216.936 414.017C216.936 414.962 217.075 415.854 217.351 416.693C217.636 417.522 218.038 418.249 218.555 418.873C219.081 419.489 219.719 419.975 220.468 420.331C221.226 420.688 222.078 420.866 223.023 420.866H227.237L224.629 418.378H228.468L230.849 420.706C231.572 420.536 232.218 420.247 232.789 419.836C233.36 419.417 233.841 418.913 234.234 418.325C234.635 417.736 234.938 417.076 235.144 416.345C235.349 415.613 235.451 414.838 235.451 414.017ZM264.601 414.017C264.601 415.346 264.392 416.594 263.973 417.763C263.553 418.931 262.956 419.948 262.18 420.813C261.413 421.678 260.49 422.36 259.411 422.86C258.332 423.359 257.132 423.609 255.812 423.609H249.431C248.102 423.609 246.894 423.359 245.806 422.86C244.718 422.36 243.786 421.678 243.01 420.813C242.243 419.948 241.65 418.931 241.23 417.763C240.811 416.594 240.602 415.346 240.602 414.017C240.602 412.697 240.811 411.457 241.23 410.298C241.65 409.13 242.243 408.113 243.01 407.248C243.786 406.374 244.718 405.687 245.806 405.188C246.894 404.679 248.102 404.425 249.431 404.425H255.812C257.132 404.425 258.332 404.679 259.411 405.188C260.49 405.687 261.413 406.374 262.18 407.248C262.956 408.113 263.553 409.13 263.973 410.298C264.392 411.457 264.601 412.697 264.601 414.017ZM261.859 414.017C261.859 413.072 261.721 412.184 261.444 411.355C261.168 410.525 260.766 409.803 260.24 409.188C259.723 408.563 259.09 408.073 258.341 407.716C257.6 407.35 256.757 407.168 255.812 407.168H249.431C248.486 407.168 247.634 407.35 246.876 407.716C246.127 408.073 245.489 408.563 244.963 409.188C244.446 409.803 244.044 410.525 243.759 411.355C243.482 412.184 243.344 413.072 243.344 414.017C243.344 414.962 243.482 415.854 243.759 416.693C244.044 417.522 244.446 418.249 244.963 418.873C245.489 419.489 246.127 419.975 246.876 420.331C247.634 420.688 248.486 420.866 249.431 420.866H255.812C256.757 420.866 257.6 420.688 258.341 420.331C259.09 419.975 259.723 419.489 260.24 418.873C260.766 418.249 261.168 417.522 261.444 416.693C261.721 415.854 261.859 414.962 261.859 414.017ZM291.009 414.017C291.009 415.346 290.799 416.594 290.38 417.763C289.961 418.931 289.364 419.948 288.588 420.813C287.821 421.678 286.898 422.36 285.818 422.86C284.739 423.359 283.54 423.609 282.22 423.609H275.839C274.51 423.609 273.301 423.359 272.213 422.86C271.125 422.36 270.193 421.678 269.417 420.813C268.65 419.948 268.057 418.931 267.638 417.763C267.219 416.594 267.009 415.346 267.009 414.017C267.009 412.697 267.219 411.457 267.638 410.298C268.057 409.13 268.65 408.113 269.417 407.248C270.193 406.374 271.125 405.687 272.213 405.188C273.301 404.679 274.51 404.425 275.839 404.425H282.22C283.54 404.425 284.739 404.679 285.818 405.188C286.898 405.687 287.821 406.374 288.588 407.248C289.364 408.113 289.961 409.13 290.38 410.298C290.799 411.457 291.009 412.697 291.009 414.017ZM288.267 414.017C288.267 413.072 288.128 412.184 287.852 411.355C287.575 410.525 287.174 409.803 286.648 409.188C286.131 408.563 285.497 408.073 284.748 407.716C284.008 407.35 283.165 407.168 282.22 407.168H275.839C274.893 407.168 274.042 407.35 273.283 407.716C272.534 408.073 271.897 408.563 271.37 409.188C270.853 409.803 270.452 410.525 270.166 411.355C269.89 412.184 269.752 413.072 269.752 414.017C269.752 414.962 269.89 415.854 270.166 416.693C270.452 417.522 270.853 418.249 271.37 418.873C271.897 419.489 272.534 419.975 273.283 420.331C274.042 420.688 274.893 420.866 275.839 420.866H282.22C283.165 420.866 284.008 420.688 284.748 420.331C285.497 419.975 286.131 419.489 286.648 418.873C287.174 418.249 287.575 417.522 287.852 416.693C288.128 415.854 288.267 414.962 288.267 414.017ZM316.654 423.609H312.949L307.196 418.124H298.795V415.422H309.805C310.376 415.422 310.911 415.315 311.41 415.101C311.91 414.878 312.342 414.579 312.708 414.204C313.082 413.83 313.377 413.393 313.591 412.893C313.805 412.385 313.912 411.845 313.912 411.275C313.912 410.704 313.805 410.169 313.591 409.669C313.377 409.17 313.082 408.737 312.708 408.372C312.342 407.997 311.91 407.703 311.41 407.489C310.911 407.275 310.376 407.168 309.805 407.168H297.256V423.609H294.514V404.425H309.805C310.75 404.425 311.638 404.608 312.467 404.974C313.296 405.33 314.019 405.821 314.634 406.445C315.258 407.061 315.749 407.783 316.106 408.612C316.471 409.442 316.654 410.329 316.654 411.275C316.654 412.131 316.507 412.942 316.213 413.709C315.918 414.467 315.513 415.15 314.995 415.756C314.478 416.354 313.867 416.853 313.163 417.254C312.467 417.647 311.713 417.91 310.902 418.044L316.654 423.609ZM341.978 423.609H339.236V418.124H323.932V415.395H339.236V407.168H329.403C328.467 407.168 327.584 407.35 326.754 407.716C325.925 408.073 325.203 408.563 324.587 409.188C323.972 409.803 323.481 410.525 323.116 411.355C322.759 412.184 322.581 413.072 322.581 414.017V423.609H319.838V414.017C319.838 413.134 319.95 412.287 320.173 411.475C320.404 410.655 320.725 409.892 321.136 409.188C321.555 408.474 322.054 407.828 322.634 407.248C323.223 406.659 323.869 406.155 324.574 405.736C325.287 405.317 326.05 404.996 326.861 404.773C327.673 404.541 328.52 404.425 329.403 404.425H341.978V423.609ZM368.386 423.609H365.644V418.124H350.339V415.395H365.644V407.168H355.811C354.874 407.168 353.991 407.35 353.162 407.716C352.333 408.073 351.61 408.563 350.995 409.188C350.379 409.803 349.889 410.525 349.523 411.355C349.167 412.184 348.988 413.072 348.988 414.017V423.609H346.246V414.017C346.246 413.134 346.357 412.287 346.58 411.475C346.812 410.655 347.133 409.892 347.543 409.188C347.963 408.474 348.462 407.828 349.042 407.248C349.63 406.659 350.277 406.155 350.981 405.736C351.695 405.317 352.458 404.996 353.269 404.773C354.081 404.541 354.928 404.425 355.811 404.425H368.386V423.609ZM375.73 423.609H372.988V404.425H374.352C375.244 404.425 376.19 404.541 377.189 404.773C378.196 405.005 379.222 405.339 380.265 405.776C381.309 406.213 382.348 406.744 383.382 407.368C384.426 407.984 385.434 408.684 386.406 409.469C387.378 410.253 388.292 411.11 389.148 412.037C390.004 412.956 390.771 413.937 391.449 414.98V404.425H394.192V423.609H391.449C391.449 422.2 391.204 420.844 390.713 419.542C390.223 418.231 389.567 416.996 388.747 415.836C387.926 414.677 386.981 413.611 385.911 412.639C384.841 411.658 383.721 410.797 382.553 410.057C381.394 409.317 380.225 408.711 379.048 408.238C377.871 407.756 376.765 407.435 375.73 407.275V423.609Z" fill="black"/>
</g>
<defs>
<filter id="filter0_d_549_7" x="0.900002" y="0.900002" width="616.2" height="616.2" filterUnits="userSpaceOnUse" color-interpolation-filters="sRGB">
<feFlood flood-opacity="0" result="BackgroundImageFix"/>
<feColorMatrix in="SourceAlpha" type="matrix" values="0 0 0 0 0 0 0 0 0 0 0 0 0 0 0 0 0 0 127 0" result="hardAlpha"/>
<feOffset dx="4" dy="4"/>
<feGaussianBlur stdDeviation="26.05"/>
<feComposite in2="hardAlpha" operator="out"/>
<feColorMatrix type="matrix" values="0 0 0 0 0 0 0 0 0 0 0 0 0 0 0 0 0 0 0.25 0"/>
<feBlend mode="normal" in2="BackgroundImageFix" result="effect1_dropShadow_549_7"/>
<feBlend mode="normal" in="SourceGraphic" in2="effect1_dropShadow_549_7" result="shape"/>
</filter>
</defs>
</svg>
